<svg width="26" height="26" viewBox="0 0 26 26" fill="none" xmlns="http://www.w3.org/2000/svg">
<g clip-path="url(#clip0_16_19212)">
<path d="M11.2681 4.08665L6.92383 8.42991H1.94043C1.29297 8.42991 0.768555 8.95433 0.768555 9.60179V16.633C0.768555 17.28 1.29297 17.8049 1.94043 17.8049H6.92383L11.2681 22.1482C12.002 22.8821 13.2686 22.3664 13.2686 21.3196V4.91526C13.2686 3.86741 12.001 3.35374 11.2681 4.08665ZM23.3096 13.1174L25.5381 10.8889C25.8457 10.5813 25.8457 10.0823 25.5381 9.77464L24.4238 8.66038C24.1162 8.35276 23.6172 8.35276 23.3096 8.66038L21.0811 10.8889L18.8525 8.66038C18.5449 8.35276 18.0459 8.35276 17.7383 8.66038L16.624 9.77464C16.3164 10.0823 16.3164 10.5813 16.624 10.8889L18.8525 13.1174L16.6245 15.3454C16.3169 15.6531 16.3169 16.1521 16.6245 16.4597L17.7388 17.574C18.0464 17.8816 18.5454 17.8816 18.853 17.574L21.0811 15.3459L23.3096 17.5744C23.6172 17.8821 24.1162 17.8821 24.4238 17.5744L25.5381 16.4602C25.8457 16.1526 25.8457 15.6535 25.5381 15.3459L23.3096 13.1174Z" fill="white"/>
</g>
<defs>
<clipPath id="clip0_16_19212">
<rect width="25" height="25" fill="white" transform="translate(0.768555 0.617432)"/>
</clipPath>
</defs>
</svg>