<svg width="25" height="26" viewBox="0 0 25 26" fill="none" xmlns="http://www.w3.org/2000/svg">
<g clip-path="url(#clip0_16_19215)">
<path d="M9.3329 5.09009L5.47135 8.95076H1.04167C0.466146 8.95076 0 9.41691 0 9.99243V16.2424C0 16.8175 0.466146 17.2841 1.04167 17.2841H5.47135L9.3329 21.1448C9.98524 21.7971 11.1111 21.3388 11.1111 20.4082V5.82663C11.1111 4.89521 9.98437 4.43861 9.3329 5.09009ZM19.4596 2.87307C18.9748 2.55493 18.3233 2.68904 18.0052 3.17472C17.6866 3.65953 17.822 4.31101 18.3069 4.62915C21.1832 6.51673 22.8997 9.68991 22.8997 13.1179C22.8997 16.5458 21.1832 19.719 18.3069 21.6066C17.822 21.9243 17.6866 22.5762 18.0052 23.0606C18.3108 23.5254 18.957 23.6925 19.4596 23.3622C22.9284 21.0853 25 17.255 25 13.1174C25 8.97984 22.9284 5.14998 19.4596 2.87307ZM20.8333 13.1174C20.8333 10.3601 19.4418 7.82489 17.1107 6.33618C16.625 6.02628 15.9809 6.17038 15.6732 6.65996C15.3655 7.14955 15.5091 7.79755 15.9948 8.10788C17.7201 9.20988 18.75 11.0823 18.75 13.1174C18.75 15.1526 17.7201 17.025 15.9948 18.127C15.5091 18.4369 15.3655 19.0849 15.6732 19.5749C15.9557 20.0245 16.5898 20.232 17.1107 19.8987C19.4418 18.41 20.8333 15.8752 20.8333 13.1174ZM14.6801 9.78106C14.1775 9.50632 13.5434 9.68731 13.2648 10.1912C12.9874 10.6951 13.171 11.3284 13.6749 11.6066C14.2352 11.9143 14.5833 12.4937 14.5833 13.1174C14.5833 13.7416 14.2352 14.3206 13.6753 14.6283C13.1714 14.9065 12.9878 15.5397 13.2652 16.0436C13.5443 16.5497 14.1788 16.7294 14.6806 16.4538C15.9058 15.7789 16.6671 14.5007 16.6671 13.117C16.6671 11.7333 15.9058 10.4555 14.6801 9.78106Z" fill="white"/>
</g>
<defs>
<clipPath id="clip0_16_19215">
<rect width="25" height="25" fill="white" transform="translate(0 0.617432)"/>
</clipPath>
</defs>
</svg>