<svg width="28" height="27" viewBox="0 0 28 27" fill="none" xmlns="http://www.w3.org/2000/svg">
<rect width="2.8" height="2.1" transform="matrix(-1 0 0 1 15.3999 20.3)" fill="#313131"/>
<rect width="2.8" height="9.8" transform="matrix(-1 0 0 1 15.3999 9.09998)" fill="#313131"/>
<rect width="2.1" height="1.4" transform="matrix(-1 0 0 1 2.1001 23.8)" fill="#313131"/>
<rect width="1.4" height="1.4" transform="matrix(-1 0 0 1 2.7998 22.4)" fill="#313131"/>
<rect width="1.4" height="1.4" transform="matrix(-1 0 0 1 3.5 21)" fill="#313131"/>
<rect width="1.4" height="1.4" transform="matrix(-1 0 0 1 4.2002 19.6)" fill="#313131"/>
<rect width="1.4" height="1.4" transform="matrix(-1 0 0 1 4.8999 18.2)" fill="#313131"/>
<rect width="1.4" height="1.4" transform="matrix(-1 0 0 1 5.6001 16.8)" fill="#313131"/>
<rect width="1.4" height="1.4" transform="matrix(-1 0 0 1 6.2998 15.4)" fill="#313131"/>
<rect width="1.4" height="1.4" transform="matrix(-1 0 0 1 7 14)" fill="#313131"/>
<rect width="1.4" height="1.4" transform="matrix(-1 0 0 1 7.7002 12.6)" fill="#313131"/>
<rect width="1.4" height="1.4" transform="matrix(-1 0 0 1 8.3999 11.2)" fill="#313131"/>
<rect width="1.4" height="1.4" transform="matrix(-1 0 0 1 9.1001 9.79999)" fill="#313131"/>
<rect width="1.4" height="1.4" transform="matrix(-1 0 0 1 9.7998 8.40002)" fill="#313131"/>
<rect width="1.4" height="1.4" transform="matrix(-1 0 0 1 10.5 7)" fill="#313131"/>
<rect width="1.4" height="1.4" transform="matrix(-1 0 0 1 11.2002 5.59998)" fill="#313131"/>
<rect width="1.4" height="1.4" transform="matrix(-1 0 0 1 11.8999 4.20001)" fill="#313131"/>
<rect width="1.4" height="1.4" transform="matrix(-1 0 0 1 12.6001 2.79999)" fill="#313131"/>
<rect width="1.4" height="1.4" transform="matrix(-1 0 0 1 13.2998 1.40002)" fill="#313131"/>
<rect width="1.4" height="1.4" transform="matrix(-1 0 0 1 14 0)" fill="#313131"/>
<rect x="25.8999" y="23.8" width="2.1" height="1.4" fill="#313131"/>
<rect x="25.2002" y="22.4" width="1.4" height="1.4" fill="#313131"/>
<rect x="24.5" y="21" width="1.4" height="1.4" fill="#313131"/>
<rect x="23.7998" y="19.6" width="1.4" height="1.4" fill="#313131"/>
<rect x="23.1001" y="18.2" width="1.4" height="1.4" fill="#313131"/>
<rect x="22.3999" y="16.8" width="1.4" height="1.4" fill="#313131"/>
<rect x="21.7002" y="15.4" width="1.4" height="1.4" fill="#313131"/>
<rect x="21" y="14" width="1.4" height="1.4" fill="#313131"/>
<rect x="20.2998" y="12.6" width="1.4" height="1.4" fill="#313131"/>
<rect x="19.6001" y="11.2" width="1.4" height="1.4" fill="#313131"/>
<rect x="18.8999" y="9.79999" width="1.4" height="1.4" fill="#313131"/>
<rect x="18.2002" y="8.40002" width="1.4" height="1.4" fill="#313131"/>
<rect x="17.5" y="7" width="1.4" height="1.4" fill="#313131"/>
<rect x="16.7998" y="5.59998" width="1.4" height="1.4" fill="#313131"/>
<rect x="16.1001" y="4.20001" width="1.4" height="1.4" fill="#313131"/>
<rect x="15.3999" y="2.79999" width="1.4" height="1.4" fill="#313131"/>
<rect x="14.7002" y="1.40002" width="1.4" height="1.4" fill="#313131"/>
<rect x="14" width="1.4" height="1.4" fill="#313131"/>
<rect x="24.5" y="25.2" width="2.8" height="1.4" fill="#313131"/>
<rect x="22.4004" y="25.2" width="2.8" height="1.4" fill="#313131"/>
<rect x="19.6001" y="25.2" width="2.8" height="1.4" fill="#313131"/>
<rect x="16.8003" y="25.2" width="2.8" height="1.4" fill="#313131"/>
<rect x="14" y="25.2" width="2.8" height="1.4" fill="#313131"/>
<rect x="11.2002" y="25.2" width="2.8" height="1.4" fill="#313131"/>
<rect x="8.40039" y="25.2" width="2.8" height="1.4" fill="#313131"/>
<rect x="5.6001" y="25.2" width="2.8" height="1.4" fill="#313131"/>
<rect x="2.80029" y="25.2" width="2.8" height="1.4" fill="#313131"/>
<rect x="0.700195" y="25.2" width="2.8" height="1.4" fill="#313131"/>
</svg>
